<?xml version="1.0" encoding="iso-8859-1"?>
<!-- Generator: Adobe Illustrator 19.0.0, SVG Export Plug-In . SVG Version: 6.00 Build 0)  -->
<svg xmlns="http://www.w3.org/2000/svg" xmlns:xlink="http://www.w3.org/1999/xlink" version="1.1" id="Layer_1" x="0px" y="0px" viewBox="0 0 512 512" style="enable-background:new 0 0 512 512;" xml:space="preserve" width="512" height="512">
<g id="XMLID_2051_">
	<rect id="XMLID_2057_" x="191.985" y="278.474" style="fill:#7586CC;" width="196.004" height="155.103"/>
	<path id="XMLID_119_" style="fill:#3F51B4;" d="M213.783,400.303c-3.764,0-7.062-2.755-7.633-6.59   c-0.629-4.221,2.283-8.154,6.504-8.783l82.276-12.262v-34.527c0-4.268,3.46-7.728,7.728-7.728c4.269,0,7.728,3.46,7.728,7.728   v41.189c0,3.828-2.802,7.08-6.589,7.644l-88.865,13.243C214.545,400.275,214.162,400.303,213.783,400.303z"/>
	<path id="XMLID_2053_" style="fill:#3F51B4;" d="M324.573,278.474c-2.113,17.052-9.762,32.412-21.093,44.237   c-19.981,41.494-62.451,70.187-111.496,70.187V278.474H324.573z"/>
	<path id="XMLID_1821_" style="fill:#3F51B4;" d="M387.989,278.474v155.103h-65.429c4.844-19.944,18.09-87.721-8.366-147.615   l-3.312-7.488H387.989z"/>
	<path id="XMLID_2217_" style="fill:#EFCDB1;" d="M297.117,269.219c0,29.656-12.27,56.446-32.029,75.562   c-17.707,17.139-41.42,28.112-67.691,29.434c-1.792,0.099-3.596,0.148-5.412,0.148c-28.421,0-54.197-11.269-73.115-29.582   c-19.759-19.116-32.029-45.906-32.029-75.562c0-3.126,0.136-6.228,0.408-9.292c1.606-18.375,7.946-35.402,17.794-49.847   c18.918-27.766,50.799-46.005,86.943-46.005s68.012,18.239,86.93,46.005C290.407,226.934,297.117,247.298,297.117,269.219z"/>
	<path id="XMLID_2214_" style="fill:#D8AD8F;" d="M197.397,374.215c-1.792,0.099-3.596,0.148-5.412,0.148   c-28.421,0-54.197-11.269-73.115-29.582c-19.759-19.116-32.029-45.906-32.029-75.562c0-3.126,0.136-6.228,0.408-9.292   c0.272,0.247,0.544,0.507,0.803,0.766l100.77,100.77C192.541,365.182,195.432,369.507,197.397,374.215z"/>
	<path id="XMLID_2103_" style="fill:#D8AD8F;" d="M297.117,269.219c0,29.656-12.27,56.446-32.029,75.562   c-5.783,1.372-11.826,2.101-18.029,2.101c-20.698,0-40.555-8.254-55.148-22.798c-14.433,14.396-34.055,22.65-54.543,22.798h-0.581   c-6.166,0-12.159-0.729-17.917-2.101c-19.759-19.116-32.029-45.906-32.029-75.562c0-21.921,6.71-42.285,18.202-59.14h173.873   C290.407,226.934,297.117,247.298,297.117,269.219z"/>
	<path id="XMLID_1971_" style="fill:#FF8859;" d="M197.397,337.229h-18.588c-4.269,0-7.728-3.46-7.728-7.728v-24.713   c0-4.268,3.46-7.728,7.728-7.728s7.728,3.46,7.728,7.728v16.985h10.86c4.269,0,7.728,3.46,7.728,7.728   S201.665,337.229,197.397,337.229z"/>
	<path id="XMLID_2520_" style="fill:#3F51B4;" d="M306.755,240.341l-0.124,28.433c0,32.906-26.678,59.572-59.572,59.572   c-17.646,0-33.499-7.674-44.41-19.87c-5.684-6.351-15.631-6.586-21.291-0.198c-7.365,8.316-17.04,14.556-28.001,17.72   c-5.116,1.495-10.528,2.298-16.126,2.348c-33.018,0.247-60.03-27.21-60.03-60.227v-27.84c0-6.438,5.227-11.665,11.665-11.665   H295.09C301.553,228.614,306.792,233.866,306.755,240.341z"/>
	<path id="XMLID_2518_" style="fill:#21399B;" d="M153.357,325.999c-5.116,1.495-10.528,2.298-16.126,2.348   c-33.018,0.247-60.03-27.21-60.03-60.227v-15.137c3.979,1.903,7.649,4.51,10.849,7.711L153.357,325.999z"/>
	<path id="XMLID_2082_" style="fill:#21399B;" d="M306.755,240.341l-0.124,28.433c0,32.906-26.678,59.572-59.572,59.572   c-9.947,0-19.338-2.447-27.58-6.759c3.497,0.642,7.118,0.976,10.8,0.976c32.906,0,59.572-26.678,59.572-59.572l0.136-28.445   c0.012-2.162-0.568-4.189-1.594-5.931h6.697C301.553,228.614,306.792,233.866,306.755,240.341z"/>
	<g id="XMLID_2291_">
		<g id="XMLID_3273_">
			<path id="XMLID_3276_" style="fill:#FEC007;" d="M245.782,301.769c-9.806,0-19.023-4.335-25.291-11.897     c-2.725-3.286-2.269-8.158,1.016-10.882c3.286-2.723,8.159-2.269,10.882,1.017c3.323,4.007,8.204,6.305,13.393,6.305     c0.002,0,0.003,0,0.005,0c5.183-0.001,10.058-2.298,13.372-6.302c2.721-3.289,7.593-3.746,10.881-1.024     c3.287,2.722,3.746,7.594,1.023,10.881c-6.259,7.56-15.47,11.897-25.271,11.901C245.789,301.769,245.785,301.769,245.782,301.769     z"/>
			<path id="XMLID_3275_" style="fill:#FEC007;" d="M138.191,301.769c-9.806,0-19.023-4.335-25.291-11.897     c-2.725-3.286-2.269-8.158,1.016-10.882c3.286-2.723,8.16-2.269,10.882,1.017c3.323,4.007,8.204,6.305,13.393,6.305     c0.002,0,0.004,0,0.006,0c5.183-0.001,10.058-2.298,13.372-6.302c2.721-3.289,7.593-3.746,10.881-1.024     c3.287,2.722,3.746,7.594,1.023,10.881c-6.259,7.56-15.47,11.897-25.272,11.901C138.199,301.769,138.195,301.769,138.191,301.769     z"/>
		</g>
	</g>
	<g id="XMLID_2392_">
		<path id="XMLID_2359_" style="fill:#3F51B4;" d="M142.981,179.946c14.964,10.174,61.279,36.281,136.661,31.272    c2.847-0.189,5.397-1.812,6.757-4.321c5.726-10.571,19.892-41.695,18.088-88.189c0,0,19.751,20.886,44.206,31.91l10.317-25.53    c0,0-30.889-68.803-72.145-65.401c-96.971,7.997-137.239,87.486-146.843,110.265C138.5,173.563,139.74,177.743,142.981,179.946z"/>
		<path id="XMLID_2474_" style="fill:#21399B;" d="M359.012,125.093l-10.318,25.529c-20.821-9.391-38.232-25.925-42.952-30.645    l0.401-21.692c0.324-17.563-13.175-27.794-29.915-22.473c-84.273,26.789-106.137,81.117-118.681,112.745    c-6.377-3.308-11.237-6.345-14.556-8.6c-3.246-2.206-4.495-6.385-2.97-10.002c9.605-22.782,49.874-102.274,146.841-110.267    C328.12,56.29,359.012,125.093,359.012,125.093z"/>
		<circle id="XMLID_1647_" style="fill:#FEC007;" cx="375.505" cy="148.743" r="36.762"/>
	</g>
	<path id="XMLID_2156_" style="fill:#80CEF9;" d="M175.711,404.514l-38.8,38.8c-0.087,0.086-0.173,0.173-0.26,0.247   c-8.279,8.02-21.489,7.933-29.669-0.247L6.2,342.532c-8.267-8.267-8.267-21.661,0-29.941L45,273.803   c8.267-8.267,21.674-8.267,29.941,0l100.77,100.77C183.978,382.84,183.978,396.247,175.711,404.514z"/>
	<path id="XMLID_2152_" style="fill:#50B8FF;" d="M175.711,404.514l-38.8,38.8c-0.087,0.086-0.173,0.173-0.26,0.247   c-6.475-9.082-10.293-20.191-10.293-32.177c0-23.256,14.359-43.224,34.686-51.479l14.667,14.668   C183.978,382.84,183.978,396.247,175.711,404.514z"/>
	<circle id="XMLID_2394_" style="fill:#EFCDB1;" cx="181.913" cy="411.378" r="41.057"/>
	<path id="XMLID_1826_" style="fill:#80CEF9;" d="M341.347,434.743c5.828-25.284,17.371-93.852-10.2-156.269   c0,0,27.803-41.247,68.58-35.069c24.071,3.645,58.893,30.979,83.384,77.675c9.923,18.931,18.152,41.049,23.268,66.06   c3.155,15.349,5.133,31.793,5.617,49.259c0.128,4.621-3.621,8.423-8.244,8.423H349.383   C344.087,444.822,340.157,439.904,341.347,434.743z"/>
	<path id="XMLID_2482_" style="fill:#50B8FF;" d="M503.753,444.822h-12.326c0-20.624-2.064-39.888-5.721-57.682   c-5.128-25.01-13.345-47.129-23.268-66.06c-23.836-45.436-57.435-72.535-81.407-77.329c5.845-1.1,12.11-1.347,18.696-0.346   c24.071,3.645,58.893,30.979,83.384,77.675c9.923,18.931,18.152,41.049,23.268,66.06c3.155,15.349,5.133,31.793,5.617,49.259   C512.125,441.02,508.376,444.822,503.753,444.822z"/>
	<path id="XMLID_2477_" style="fill:#FEC007;" d="M506.38,387.14c-5.215,4.683-11.739,7.945-18.955,9.144   c-2.064,0.358-4.189,0.544-6.351,0.544c-20.92,0-37.886-16.966-37.886-37.898c0-14.939,8.65-27.865,21.205-34.043   c5.029-2.471,10.689-3.855,16.682-3.855c0.68,0,1.359,0.012,2.039,0.049C493.034,340.011,501.264,362.13,506.38,387.14z"/>
	<path id="XMLID_2471_" style="fill:#FE9700;" d="M506.38,387.14c-5.215,4.683-11.739,7.945-18.955,9.144   c-0.531-3.089-1.1-6.141-1.717-9.144c-4.782-23.354-12.27-44.188-21.316-62.254c5.029-2.471,10.689-3.855,16.682-3.855   c0.68,0,1.359,0.012,2.039,0.049C493.034,340.011,501.264,362.13,506.38,387.14z"/>
	<path id="XMLID_1724_" style="fill:#50B8FF;" d="M412.275,297.22c-2.66,0-5.249-1.375-6.685-3.839   c-16.8-28.836-58.09-23.729-58.508-23.672c-4.223,0.564-8.114-2.415-8.675-6.646c-0.56-4.231,2.415-8.115,6.646-8.676   c2.111-0.279,51.966-6.417,73.892,31.213c2.148,3.688,0.901,8.419-2.787,10.568C414.935,296.881,413.596,297.219,412.275,297.22z"/>
</g>















</svg>
